<?xml version="1.0" standalone="no"?>
<!DOCTYPE svg PUBLIC "-//W3C//DTD SVG 20010904//EN"
 "http://www.w3.org/TR/2001/REC-SVG-20010904/DTD/svg10.dtd">
<svg version="1.0" xmlns="http://www.w3.org/2000/svg"
 width="700.000000pt" height="700.000000pt" viewBox="0 0 700.000000 700.000000"
 preserveAspectRatio="xMidYMid meet">
<metadata>
Created by potrace 1.14, written by Peter Selinger 2001-2017
</metadata>
<g transform="translate(0.000000,700.000000) scale(0.100000,-0.100000)"
fill="#000000" stroke="none">
<path d="M2475 6213 c-11 -2 -67 -13 -125 -24 -58 -12 -112 -22 -120 -24 -256
-53 -749 -214 -995 -324 -22 -10 -69 -31 -104 -47 -70 -31 -68 -28 -219 -274
-171 -279 -353 -640 -481 -955 -5 -11 -14 -33 -21 -50 -13 -33 -91 -248 -120
-335 -20 -58 -68 -217 -75 -247 -3 -10 -20 -80 -40 -156 -45 -174 -90 -409
-116 -597 -6 -41 -12 -86 -14 -100 -4 -28 -16 -139 -20 -185 -28 -319 -27
-917 2 -1138 7 -55 5 -54 224 -203 136 -93 119 -82 284 -182 157 -96 205 -122
360 -200 176 -89 220 -109 325 -154 52 -21 109 -45 125 -53 53 -23 227 -87
343 -125 l112 -37 34 46 c97 135 227 347 304 497 l42 82 -83 33 c-150 59 -508
242 -507 259 1 6 126 103 139 108 5 2 33 -8 62 -21 263 -118 629 -240 839
-281 176 -34 306 -57 354 -62 33 -3 69 -8 80 -10 63 -12 229 -19 441 -19 265
0 376 8 595 40 58 8 116 18 135 22 11 2 49 10 85 18 82 17 107 23 128 29 9 3
28 7 42 10 114 19 464 140 673 231 l107 47 70 -53 c38 -30 70 -56 70 -59 0
-18 -315 -180 -498 -256 -48 -20 -88 -37 -90 -39 -5 -5 129 -248 195 -354 50
-80 154 -233 170 -253 13 -15 24 -13 141 27 422 143 814 325 1165 543 236 145
476 314 478 335 0 7 2 23 4 37 26 209 26 954 1 1121 -3 13 -7 56 -10 94 -8 82
-12 113 -26 215 -17 113 -28 184 -35 220 -3 14 -8 36 -10 50 -3 14 -8 39 -11
57 -3 17 -21 98 -40 180 -39 166 -37 158 -59 233 -9 30 -23 79 -31 109 -17 62
-100 316 -114 346 -4 11 -39 97 -76 190 -141 356 -334 726 -566 1087 l-69 106
-107 47 c-172 76 -336 139 -497 193 -134 44 -346 107 -392 117 -10 2 -54 12
-98 23 -77 20 -169 39 -320 68 l-31 5 -76 -153 c-42 -84 -82 -170 -89 -191
l-13 -38 -65 6 c-36 4 -68 8 -71 10 -3 1 -41 6 -85 10 -44 4 -93 8 -110 11
-187 24 -733 24 -950 0 -16 -2 -61 -7 -100 -10 -38 -4 -81 -9 -95 -11 -14 -2
-49 -6 -77 -10 l-53 -7 -35 79 c-69 151 -149 303 -160 302 -5 -1 -19 -3 -30
-6z m-16 -2267 c138 -32 274 -123 361 -241 100 -135 149 -298 144 -477 -7
-301 -175 -565 -417 -658 -86 -34 -130 -42 -220 -41 -251 3 -483 186 -576 456
-29 85 -33 107 -38 222 -15 303 129 569 375 692 34 17 88 38 120 45 54 13 199
14 251 2z m2381 -16 c155 -52 290 -171 370 -330 28 -54 59 -144 66 -189 3 -18
8 -43 10 -55 6 -28 5 -169 -1 -226 -7 -61 -42 -175 -72 -235 -97 -191 -261
-322 -453 -361 -44 -8 -165 -5 -215 6 -161 36 -308 147 -399 301 -27 44 -51
90 -54 102 -3 12 -8 27 -12 32 -21 28 -44 177 -43 280 3 337 208 618 503 690
77 18 219 11 300 -15z"/>
</g>
</svg>
